<svg width="10" height="15" viewBox="0 0 10 15" fill="none" xmlns="http://www.w3.org/2000/svg">
<path d="M4.95841 2.83333C5.74082 2.83333 6.37508 2.19907 6.37508 1.41667C6.37508 0.634263 5.74082 0 4.95841 0C4.17601 0 3.54175 0.634263 3.54175 1.41667C3.54175 2.19907 4.17601 2.83333 4.95841 2.83333Z" fill="#C9C9C9"/>
<path d="M9.91667 7.79167V6.37501C8.82583 6.38917 7.72792 5.84376 7.03375 5.07876L6.12 4.06584C5.99958 3.93126 5.85083 3.82501 5.68792 3.74709C5.68083 3.74709 5.68083 3.74001 5.67375 3.74001H5.66667C5.41875 3.59834 5.13542 3.52751 4.82375 3.55584C4.08 3.61959 3.54167 4.27834 3.54167 5.02209V9.20834C3.54167 9.98751 4.17917 10.625 4.95833 10.625H8.5V14.1667H9.91667V10.2708C9.91667 9.49167 9.27917 8.85417 8.5 8.85417H6.375V6.41042C7.28875 7.16834 8.67708 7.78459 9.91667 7.79167ZM3.54167 12.75C2.36583 12.75 1.41667 11.8008 1.41667 10.625C1.41667 9.69709 2.01167 8.91792 2.83333 8.62042V7.15417C1.21833 7.48001 0 8.91084 0 10.625C0 12.58 1.58667 14.1667 3.54167 14.1667C5.25583 14.1667 6.68667 12.9483 7.0125 11.3333H5.54625C5.25583 12.155 4.46958 12.75 3.54167 12.75Z" fill="#C9C9C9"/>
</svg>
