<svg width="172" height="32" viewBox="0 0 172 32" fill="none" xmlns="http://www.w3.org/2000/svg">
<g clip-path="url(#clip0_90_219)">
<path d="M19.8568 16.5199C19.6474 16.1637 19.3278 15.8854 18.9462 15.7268C18.7292 15.6438 18.4965 15.6097 18.2647 15.627C18.0324 15.639 17.8048 15.6969 17.595 15.7973C17.0549 16.0178 16.5927 16.3941 16.2673 16.8783C15.9403 17.3551 15.6813 17.8751 15.4977 18.4234C15.4457 18.6914 15.4085 18.962 15.3861 19.2341C15.3626 19.5164 15.3745 19.8006 15.4213 20.0801C15.4545 20.4443 15.5754 20.795 15.7738 21.1023C15.9431 21.3949 16.1862 21.6379 16.4788 21.8072C16.764 21.9719 17.0897 22.0533 17.4188 22.0422C17.7941 22.0276 18.1589 21.9141 18.4762 21.7132C18.9295 21.444 19.309 21.0665 19.5807 20.6147C19.8569 20.1606 20.0684 19.6702 20.2093 19.1577C20.3198 18.7161 20.3438 18.2572 20.2798 17.8065C20.2349 17.3518 20.0905 16.9126 19.8568 16.5199Z" fill="#FF8B7C"/>
<path d="M36.2357 19.3868C34.8071 18.7104 33.4641 17.8663 32.235 16.8724C32.1437 16.7971 32.0404 16.7375 31.9295 16.6962C31.671 12.3664 29.5443 6.29189 27.0534 3.97135C23.6284 0.816585 14.4637 -1.76245 8.53019 1.56856C5.50481 3.29706 3.08711 5.91776 1.60759 9.07239C0.128069 12.227 -0.341053 15.7616 0.264354 19.1929C0.888386 22.5105 2.58013 25.5329 5.08168 27.7995C7.79584 30.2669 11.1621 31.4243 14.7633 31.7944C18.3646 32.1645 22.6003 32.2526 25.8549 30.3316C28.2756 28.7981 30.0837 26.4663 30.966 23.74C32.944 23.0544 34.7899 22.035 36.4237 20.7263C36.5152 20.6338 36.5836 20.5211 36.6234 20.3973C36.6662 20.2748 36.6803 20.1442 36.6646 20.0154C36.6451 19.8878 36.5991 19.7657 36.5294 19.657C36.455 19.5444 36.3542 19.4516 36.2357 19.3868ZM9.6464 17.1955L9.55828 17.2778V19.8039C9.55828 20.644 9.55828 21.4841 9.55828 22.3301C9.56463 22.4649 9.54053 22.5994 9.48778 22.7237C9.43945 22.851 9.36546 22.967 9.27041 23.0644C9.19353 23.1418 9.10194 23.2029 9.00104 23.2443C8.90014 23.2857 8.79198 23.3064 8.68293 23.3053C8.47708 23.3042 8.27946 23.2244 8.1307 23.0821C7.93814 22.8991 7.82436 22.6484 7.81346 22.383V17.2249C6.9439 16.3829 6.14242 15.4734 5.41655 14.5049C4.68705 13.5353 4.13237 12.4458 3.77748 11.2855V11.1621C3.7716 11.131 3.7716 11.0992 3.77748 11.0681C3.76696 10.9409 3.78296 10.8128 3.82448 10.6921C3.86445 10.5697 3.93061 10.4574 4.01835 10.3631C4.09061 10.2862 4.17884 10.226 4.27684 10.1869C4.37281 10.1428 4.47676 10.1188 4.58233 10.1164C4.74862 10.1215 4.91067 10.1701 5.05231 10.2574C5.19869 10.3419 5.32026 10.4635 5.4048 10.6099C5.68196 11.5918 6.11645 12.5223 6.69138 13.3651C7.27656 14.1802 7.92688 14.9464 8.63593 15.6563L10.6804 13.2359C11.3575 12.4305 11.9483 11.5563 12.4428 10.6275C12.5338 10.4488 12.6719 10.2985 12.8423 10.1928C12.9967 10.0944 13.1797 10.0507 13.3619 10.0689C13.544 10.087 13.7149 10.1658 13.8469 10.2926C13.9516 10.366 14.038 10.4625 14.0995 10.5746C14.1422 10.6809 14.1622 10.795 14.1582 10.9095C14.1532 11.0695 14.1173 11.2271 14.0525 11.3736C13.4737 12.4387 12.7888 13.4425 12.0081 14.3697C11.1895 15.3254 10.4023 16.2673 9.6464 17.1955ZM21.8895 19.6042C21.6797 20.4526 21.3044 21.2512 20.785 21.9541C20.2661 22.6499 19.5616 23.1854 18.7523 23.4992C18.1956 23.7312 17.5902 23.822 16.9899 23.7635C16.4488 23.7067 15.9291 23.5214 15.4742 23.223C15.021 22.9137 14.6369 22.5136 14.3462 22.0481C14.0305 21.555 13.8168 21.0037 13.7176 20.4266C13.6453 20.0573 13.6196 19.6803 13.6413 19.3046C13.6707 18.9373 13.7237 18.5723 13.7999 18.2118L13.8645 17.9357C14.025 17.4803 14.2215 17.0383 14.452 16.6139C14.6702 16.1916 14.9384 15.7971 15.2509 15.4389C15.5581 15.0881 15.9142 14.7834 16.3084 14.5342C16.7131 14.2778 17.1579 14.0912 17.6244 13.982C18.339 13.7903 19.0983 13.8569 19.7687 14.17C20.3662 14.4738 20.8714 14.9323 21.2315 15.4977C21.6069 16.101 21.8548 16.7748 21.96 17.4775C22.0865 18.1835 22.0624 18.9082 21.8895 19.6042ZM25.808 22.3242C25.7665 22.4465 25.7028 22.56 25.62 22.6591C25.535 22.7548 25.4335 22.8344 25.3203 22.8941C25.2009 22.9542 25.0715 22.992 24.9385 23.0057C24.8051 23.0149 24.6711 22.9969 24.5449 22.9528C24.4181 22.9194 24.3 22.8593 24.1983 22.7766C24.0975 22.6926 24.0155 22.5886 23.9574 22.4711C23.8921 22.3576 23.852 22.2313 23.8399 22.101C23.8291 21.9718 23.8451 21.8418 23.8869 21.7191C23.9266 21.5913 23.9926 21.4732 24.0808 21.3725C24.1703 21.2728 24.278 21.1911 24.398 21.1316C24.5122 21.069 24.6383 21.031 24.7681 21.02C24.8968 21.01 25.0263 21.024 25.15 21.0611C25.2777 21.1024 25.397 21.1661 25.5025 21.2491C25.6019 21.3365 25.6837 21.4422 25.7433 21.5605C25.8058 21.6766 25.8437 21.8043 25.8549 21.9356C25.866 22.067 25.85 22.1993 25.808 22.3242ZM26.5952 19.1518C26.5614 19.2607 26.5076 19.3623 26.4366 19.4514C26.3668 19.5392 26.2811 19.613 26.1839 19.6688C26.0202 19.7567 25.8293 19.7798 25.6493 19.7334C25.4818 19.6695 25.3438 19.5461 25.2616 19.3868C25.1482 19.1872 25.1166 18.9513 25.1735 18.7288L26.4366 14.8808C26.5296 14.6949 26.6828 14.5458 26.8713 14.4579C27.0214 14.3863 27.1919 14.3697 27.353 14.4109C27.5083 14.4564 27.6419 14.5565 27.729 14.6928C27.844 14.8664 27.8996 15.0725 27.8876 15.2803L26.5952 19.1518Z" fill="#FF8B7C"/>
<path d="M159.248 27.8171C159.362 27.6983 159.449 27.5569 159.505 27.402C159.561 27.2472 159.583 27.0824 159.571 26.9183V20.9612H166.298C166.661 21.0208 167.032 21.0079 167.39 20.9232C167.748 20.8385 168.086 20.6837 168.383 20.4678C168.628 20.2152 168.815 19.9127 168.931 19.5811C169.048 19.2496 169.091 18.8967 169.059 18.5467V13.1478C169.103 12.8035 169.067 12.4538 168.954 12.1257C168.841 11.7976 168.654 11.5 168.407 11.2561C167.79 10.819 167.04 10.6112 166.286 10.6686H159.583V6.00989C159.593 5.85254 159.569 5.69484 159.512 5.54774C159.455 5.40064 159.367 5.26767 159.254 5.15805C158.973 4.9676 158.641 4.86718 158.302 4.87018C157.963 4.86901 157.632 4.96927 157.35 5.15805C157.233 5.267 157.143 5.40175 157.086 5.55166C157.029 5.69731 157.003 5.85347 157.01 6.00989V10.7097H150.73C150.364 10.6564 149.992 10.6757 149.634 10.7664C149.276 10.8572 148.94 11.0176 148.644 11.2385C148.403 11.4953 148.218 11.8002 148.103 12.1333C147.987 12.4664 147.944 12.8201 147.974 13.1713V18.5643C147.913 18.8982 147.935 19.242 148.037 19.5655C148.14 19.8891 148.32 20.1828 148.562 20.4208C149.19 20.8573 149.949 21.0647 150.712 21.0082H156.957V26.9124C156.95 27.0779 156.978 27.243 157.037 27.3976C157.097 27.5522 157.188 27.6929 157.303 27.8112C157.432 27.9234 157.582 28.0092 157.744 28.0639C157.908 28.1197 158.082 28.1436 158.255 28.1344C158.43 28.1455 158.605 28.1236 158.772 28.0697C158.947 28.0199 159.109 27.9338 159.248 27.8171ZM151.84 12.7894H156.957V14.687H150.589V13.8469C150.571 13.6988 150.584 13.5487 150.625 13.4055C150.666 13.2623 150.736 13.1287 150.829 13.0126C151.134 12.8322 151.488 12.754 151.84 12.7894ZM150.589 17.8417V16.7901H156.957V18.8581H151.858C151.506 18.893 151.152 18.8214 150.841 18.6524C150.744 18.5429 150.671 18.414 150.628 18.2742C150.584 18.1345 150.571 17.987 150.589 17.8417ZM166.421 13.841V14.687H159.571V12.807H165.152C165.505 12.7694 165.862 12.8456 166.169 13.0244C166.262 13.1372 166.333 13.2674 166.376 13.4076C166.419 13.5477 166.435 13.695 166.421 13.841ZM165.164 18.8581H159.571V16.7901H166.409V17.83C166.429 17.9731 166.418 18.1188 166.378 18.2574C166.337 18.3961 166.268 18.5247 166.174 18.6348C165.868 18.8087 165.516 18.8864 165.164 18.8581Z" fill="#979797"/>
<path d="M158.361 28.2401H158.273C158.091 28.2495 157.91 28.2236 157.738 28.1637C157.565 28.1068 157.405 28.0148 157.268 27.8935L157.151 27.7936C156.944 27.5458 156.839 27.2288 156.857 26.9065V21.0317H150.724C149.944 21.0947 149.166 20.8873 148.521 20.4443C148.265 20.1986 148.073 19.8939 147.963 19.5569C147.852 19.2199 147.826 18.861 147.886 18.5115V13.1419C147.856 12.7785 147.903 12.4129 148.023 12.0687C148.143 11.7246 148.335 11.4097 148.585 11.1445C148.889 10.9135 149.235 10.7457 149.605 10.6508C149.974 10.556 150.358 10.5361 150.735 10.5922H156.857V6.0099C156.846 5.84319 156.875 5.67629 156.939 5.52229C157.002 5.36082 157.098 5.21458 157.221 5.09343C157.52 4.89659 157.871 4.79169 158.229 4.79169C158.587 4.79169 158.937 4.89659 159.236 5.09343C159.361 5.21198 159.459 5.35658 159.522 5.51699C159.585 5.6774 159.612 5.84969 159.601 6.02165V10.5746H166.227C167 10.5098 167.771 10.7177 168.407 11.1621C168.662 11.4144 168.857 11.722 168.975 12.0611C169.093 12.4002 169.132 12.7619 169.088 13.1184V18.5173C169.119 18.8795 169.073 19.2441 168.951 19.5866C168.829 19.9291 168.636 20.2416 168.383 20.503C168.077 20.7278 167.73 20.8894 167.36 20.9781C166.991 21.0669 166.608 21.0811 166.233 21.02H159.671V26.8948C159.681 27.0696 159.656 27.2446 159.596 27.4092C159.536 27.5738 159.444 27.7246 159.324 27.8524L159.283 27.8935C159.026 28.1067 158.701 28.2231 158.367 28.2225L158.361 28.2401ZM158.273 28.058C158.441 28.0686 158.611 28.0487 158.772 27.9993C158.926 27.9451 159.068 27.8613 159.189 27.7525C159.295 27.6422 159.377 27.5111 159.43 27.3675C159.482 27.2239 159.504 27.0709 159.495 26.9183V20.8731H166.31C167.021 20.9906 167.749 20.8216 168.336 20.4031C168.572 20.1587 168.751 19.8662 168.863 19.5457C168.974 19.2253 169.015 18.8845 168.983 18.5467V13.1478C169.025 12.8159 168.991 12.4788 168.883 12.1622C168.775 11.8456 168.596 11.5578 168.36 11.3207C167.757 10.9048 167.028 10.7098 166.298 10.7685H159.495V6.0099C159.508 5.86557 159.489 5.72012 159.439 5.584C159.389 5.44788 159.31 5.32449 159.207 5.22268C158.938 5.0458 158.624 4.95153 158.302 4.95153C157.981 4.95153 157.666 5.0458 157.397 5.22268C157.288 5.32887 157.202 5.45698 157.145 5.59866C157.092 5.73112 157.068 5.87331 157.074 6.01578V10.7802H150.73C150.375 10.7267 150.014 10.7438 149.666 10.8305C149.318 10.9172 148.991 11.0718 148.703 11.2855C148.469 11.5315 148.29 11.8239 148.176 12.1437C148.063 12.4635 148.018 12.8036 148.045 13.1419V18.535C147.993 18.8543 148.019 19.1816 148.121 19.4886C148.224 19.7956 148.399 20.0732 148.632 20.2974C149.247 20.7125 149.985 20.9052 150.724 20.8438H157.057V26.9124C157.049 27.0672 157.074 27.2218 157.13 27.3665C157.185 27.5111 157.271 27.6426 157.38 27.7525C157.626 27.9634 157.944 28.0708 158.267 28.0521L158.273 28.058ZM165.323 18.9579H165.135H159.46V16.7138H166.474V17.8417C166.495 17.9985 166.483 18.158 166.439 18.3098C166.394 18.4617 166.318 18.6024 166.216 18.723C165.95 18.8728 165.651 18.9536 165.346 18.9579H165.323ZM165.152 18.77C165.481 18.807 165.814 18.7414 166.104 18.582C166.186 18.4823 166.247 18.3666 166.283 18.2422C166.318 18.1179 166.327 17.9875 166.31 17.8594V16.8783H159.671V18.77H165.152ZM151.64 18.9462C151.332 18.9482 151.029 18.8714 150.759 18.723C150.656 18.605 150.58 18.4663 150.535 18.3163C150.491 18.1663 150.479 18.0085 150.5 17.8535V16.702H157.045V18.9462H151.858C151.793 18.952 151.728 18.952 151.664 18.9462H151.64ZM150.859 18.5761C151.151 18.73 151.482 18.7953 151.811 18.7641L156.857 18.7993V16.8783H150.677V17.8535C150.66 17.9816 150.669 18.1118 150.705 18.2361C150.74 18.3604 150.801 18.4761 150.882 18.5761H150.859ZM166.486 14.7633H159.436V12.7072H165.093C165.495 12.6434 165.906 12.7202 166.257 12.9245C166.358 13.0495 166.432 13.1935 166.477 13.3478C166.521 13.5022 166.534 13.6639 166.515 13.8234V14.734L166.486 14.7633ZM159.636 14.5871H166.31V13.8293C166.326 13.6962 166.315 13.5612 166.279 13.4321C166.243 13.3031 166.181 13.1825 166.098 13.0773C165.811 12.9156 165.48 12.8478 165.152 12.8834H159.648L159.636 14.5871ZM157.021 14.7633H150.5V13.8586C150.481 13.6982 150.494 13.5355 150.538 13.3801C150.583 13.2247 150.658 13.0798 150.759 12.9539C151.082 12.7661 151.456 12.6859 151.828 12.7248H157.021V14.7633ZM150.653 14.5871H156.857V12.8775H151.822C151.495 12.8419 151.164 12.9097 150.876 13.0714C150.708 13.286 150.632 13.5586 150.665 13.8293V14.5871H150.653Z" fill="#979797"/>
<path d="M148.497 25.7669L148.532 25.808V25.7727L148.503 25.7316L148.497 25.7669ZM168.742 23.1291L168.665 22.9998C168.453 23.1232 168.231 23.2293 168.001 23.3171C167.653 23.4355 167.298 23.5336 166.938 23.6108C166.191 23.7734 165.433 23.8833 164.67 23.9398C163.008 24.0661 161.339 24.0661 159.677 23.9398C159.089 23.8869 158.784 23.8458 158.314 23.7753H158.079C157.45 23.6813 156.792 23.5991 156.146 23.5344C154.625 23.3622 153.094 23.2955 151.564 23.3347C150.793 23.3463 150.025 23.423 149.267 23.5638C148.498 23.6951 147.78 24.0321 147.187 24.539C147.089 24.6198 147.01 24.721 146.955 24.8357C146.9 24.9504 146.871 25.0758 146.87 25.2029C146.891 25.4475 147.002 25.6756 147.181 25.8432C147.358 26.0237 147.595 26.1321 147.847 26.1473C148.099 26.1625 148.347 26.0834 148.544 25.9255H148.573L148.626 25.8726H148.662H148.709C148.772 25.8316 148.839 25.7962 148.908 25.7669H148.949H148.996L149.108 25.7257H149.155C149.302 25.6787 149.455 25.6376 149.607 25.6024C150.249 25.4262 150.906 25.3121 151.57 25.2616C153.088 25.2224 154.608 25.2892 156.117 25.4614L156.992 25.5612H157.092L157.303 25.5906L157.709 25.6435C158.355 25.7434 158.995 25.8256 159.653 25.8785C161.291 26.0175 162.937 26.0273 164.576 25.9078C166.251 25.7904 168.166 25.5789 169.67 24.7329C169.79 24.6685 169.894 24.5781 169.974 24.4683C170.054 24.3585 170.109 24.2321 170.134 24.0984C170.175 23.856 170.124 23.607 169.993 23.3993C169.869 23.1874 169.673 23.0269 169.441 22.947C169.309 22.9055 169.17 22.8936 169.033 22.9118C168.895 22.9301 168.764 22.9782 168.648 23.0527L168.742 23.1291ZM148.973 25.5084L149.049 25.479C149.049 25.479 149.049 25.479 149.049 25.5142C149.056 25.5452 149.056 25.5772 149.049 25.6082L148.973 25.5084Z" fill="#979797"/>
<path d="M147.927 26.2427C147.626 26.2384 147.338 26.1185 147.122 25.9078C146.924 25.7265 146.802 25.4766 146.782 25.2087C146.774 25.0606 146.8 24.9126 146.858 24.7762C146.916 24.6397 147.004 24.5183 147.117 24.4215C147.721 23.9012 148.457 23.5559 149.243 23.4228C150.007 23.2851 150.781 23.2085 151.558 23.1937C153.094 23.1544 154.631 23.2211 156.158 23.3934C156.775 23.458 157.444 23.5403 158.091 23.6343L158.326 23.6695C158.784 23.7341 159.089 23.7753 159.683 23.8281C161.341 23.9545 163.006 23.9545 164.665 23.8281C165.423 23.7716 166.177 23.6617 166.92 23.4992C167.277 23.4247 167.628 23.3285 167.972 23.2113C168.191 23.1274 168.403 23.0272 168.607 22.9117L168.677 22.8705C168.796 22.806 168.926 22.7665 169.06 22.7543C169.195 22.7422 169.33 22.7578 169.458 22.8001C169.723 22.8829 169.948 23.0592 170.092 23.296C170.235 23.5328 170.288 23.8139 170.24 24.0866C170.21 24.2195 170.155 24.3452 170.076 24.4562C169.997 24.5672 169.897 24.6613 169.781 24.7329H169.734C168.207 25.62 166.286 25.8256 164.606 25.9431C162.963 26.0626 161.313 26.0527 159.671 25.9137C158.966 25.8608 158.29 25.7609 157.721 25.6787L157.133 25.5965H157.039L156.158 25.4966C154.652 25.3272 153.137 25.2605 151.623 25.2968C150.987 25.3085 150.353 25.3793 149.731 25.5083L149.284 25.6258L149.237 25.5495L149.267 25.6317L149.09 25.7022L149.043 25.7551V25.7198L148.861 25.8197L148.791 25.8667L148.838 25.9313H148.744L148.673 26.0018H148.632C148.433 26.1636 148.183 26.249 147.927 26.2427ZM152.416 23.3582H151.564C150.797 23.3669 150.032 23.4436 149.278 23.5873C148.524 23.7109 147.819 24.0403 147.24 24.539C147.146 24.6174 147.071 24.7166 147.023 24.8288C146.974 24.9409 146.951 25.063 146.958 25.1852C146.973 25.4099 147.074 25.6201 147.24 25.7727C147.396 25.9333 147.605 26.0323 147.828 26.0517C148.052 26.0711 148.274 26.0096 148.456 25.8784L148.386 25.7727L148.268 25.6435H148.468L148.609 25.5201V25.6728L148.644 25.7257L148.72 25.6728L148.932 25.5612L148.873 25.4261L149.108 25.3438L149.161 25.4143C149.164 25.4318 149.164 25.4497 149.161 25.4672H149.22C149.372 25.4175 149.527 25.3763 149.684 25.3438C150.316 25.2096 150.959 25.1368 151.605 25.1265C153.127 25.087 154.651 25.1538 156.164 25.3262L157.762 25.5083C158.349 25.5965 159.007 25.6904 159.706 25.7433C161.338 25.8785 162.978 25.8902 164.612 25.7786C166.262 25.6552 168.137 25.4555 169.64 24.6036C169.751 24.5448 169.847 24.4612 169.921 24.3593C169.994 24.2574 170.043 24.14 170.063 24.0161C170.101 23.7967 170.057 23.5709 169.94 23.3817C169.823 23.1878 169.642 23.0404 169.429 22.9645C169.216 22.8991 168.986 22.9202 168.789 23.0233L168.818 23.0703L168.665 23.1584L168.636 23.1055C168.446 23.2118 168.25 23.306 168.048 23.3875C167.696 23.5067 167.337 23.6048 166.973 23.6813C166.222 23.8458 165.461 23.9577 164.694 24.0161C163.028 24.1424 161.355 24.1424 159.689 24.0161C159.101 23.9633 158.784 23.9221 158.314 23.8516L158.085 23.8164C157.439 23.7283 156.775 23.646 156.158 23.5814C154.916 23.4358 153.666 23.3612 152.416 23.3582Z" fill="#979797"/>
<path d="M148.497 8.76519L148.532 8.80631L148.503 8.76519H148.497ZM168.742 6.1274L168.665 5.99816C168.453 6.12151 168.231 6.22759 168.001 6.3154C167.654 6.43655 167.299 6.53468 166.938 6.60914C166.191 6.7717 165.433 6.88163 164.67 6.93813C163.008 7.06737 161.339 7.06737 159.677 6.93813C159.089 6.89113 158.784 6.84413 158.314 6.77951L158.079 6.74426C157.45 6.65614 156.792 6.56801 156.146 6.50339C154.625 6.33121 153.094 6.26447 151.564 6.30365C150.793 6.31822 150.025 6.39484 149.267 6.53277C148.499 6.66661 147.781 7.00331 147.187 7.50798C147.082 7.59427 146.998 7.70408 146.943 7.82857C146.888 7.95306 146.863 8.08874 146.87 8.22471C146.89 8.46962 147.001 8.69813 147.181 8.86506C147.357 9.04676 147.594 9.156 147.847 9.17122C148.099 9.18645 148.348 9.10655 148.544 8.94731H148.574L148.626 8.89443L148.662 8.86506L148.709 8.83568C148.772 8.7947 148.839 8.75931 148.908 8.72994H148.95H148.997L149.108 8.68294H149.155C149.302 8.63594 149.455 8.59482 149.607 8.55957C150.249 8.38535 150.906 8.27322 151.57 8.22471C153.088 8.18846 154.607 8.2552 156.117 8.42445L156.992 8.52432H157.092L157.303 8.55369L157.709 8.60657C158.355 8.70644 158.995 8.79456 159.653 8.84743C161.291 8.98057 162.937 8.99039 164.576 8.87681C166.251 8.75344 168.166 8.54194 169.67 7.67248C169.79 7.60683 169.894 7.51532 169.974 7.40457C170.054 7.29381 170.109 7.16659 170.134 7.03212C170.174 6.78969 170.124 6.54097 169.993 6.33302C169.869 6.12112 169.673 5.96065 169.441 5.88066C169.309 5.84083 169.17 5.82965 169.033 5.84789C168.896 5.86613 168.765 5.91335 168.648 5.98641L168.742 6.1274ZM148.973 8.5067L149.049 8.47732C149.049 8.47732 149.049 8.47732 149.049 8.51257C149.057 8.54348 149.057 8.57566 149.049 8.60657L148.973 8.5067Z" fill="#979797"/>
<path d="M147.927 9.24105C147.626 9.23676 147.338 9.11688 147.122 8.90619C146.924 8.7249 146.802 8.47494 146.782 8.20709C146.772 8.05884 146.798 7.91043 146.856 7.77373C146.914 7.63703 147.003 7.51584 147.117 7.41986C147.715 6.9053 148.442 6.56224 149.22 6.42702C149.983 6.28458 150.758 6.20598 151.534 6.19203C153.071 6.15273 154.607 6.21947 156.134 6.39177C156.751 6.4564 157.421 6.53864 158.067 6.63264L158.302 6.66789C158.784 6.73839 159.072 6.77951 159.659 6.82651C161.317 6.95573 162.983 6.95573 164.641 6.82651C165.4 6.77249 166.154 6.66252 166.897 6.49752C167.254 6.42578 167.605 6.3296 167.949 6.20966C168.173 6.12489 168.389 6.0207 168.595 5.89829L168.671 5.85129C168.79 5.78805 168.921 5.74923 169.055 5.73712C169.189 5.72501 169.324 5.73986 169.453 5.7808C169.715 5.86217 169.938 6.03529 170.083 6.26838C170.228 6.50148 170.283 6.77891 170.24 7.04975C170.212 7.19702 170.152 7.33624 170.063 7.4572C169.975 7.57817 169.861 7.67782 169.729 7.74885C168.201 8.63595 166.28 8.84156 164.6 8.96493C162.957 9.08832 161.308 9.08832 159.665 8.96493C158.96 8.90619 158.279 8.81219 157.715 8.72407L157.127 8.64182H157.027L156.152 8.54195C154.647 8.37258 153.131 8.30584 151.617 8.34221C150.981 8.35388 150.348 8.42469 149.725 8.5537L149.279 8.67119L149.232 8.6007V8.68882L149.073 8.74757L149.026 8.80044L148.844 8.90031L148.773 8.95318L148.826 9.02368H148.72L148.656 9.09418H148.615C148.41 9.2219 148.167 9.27386 147.927 9.24105ZM152.416 6.35653H151.564C150.797 6.37109 150.033 6.44771 149.279 6.58564C148.525 6.71191 147.82 7.04091 147.24 7.53736C147.147 7.61633 147.073 7.71565 147.024 7.82768C146.975 7.93972 146.952 8.06148 146.958 8.18359C146.973 8.40825 147.074 8.61846 147.24 8.77107C147.396 8.93163 147.605 9.03065 147.828 9.05006C148.052 9.06947 148.274 9.00798 148.456 8.87681L148.386 8.77694L148.268 8.64769H148.468L148.609 8.52432V8.67707L148.644 8.73582L148.691 8.70057L148.903 8.58895L148.844 8.45383L148.932 8.42445L148.961 8.5067V8.41858L149.108 8.3657L149.149 8.44208C149.152 8.45959 149.152 8.47743 149.149 8.49495H149.19C149.326 8.45383 149.472 8.4127 149.655 8.37158C150.286 8.23807 150.93 8.16528 151.576 8.15421C153.098 8.11773 154.621 8.18446 156.134 8.35396L157.803 8.5537C158.39 8.63595 159.007 8.71819 159.677 8.77694C161.309 8.9101 162.949 8.91992 164.582 8.80631C166.239 8.68294 168.107 8.4832 169.635 7.63136C169.745 7.57116 169.84 7.48716 169.913 7.38551C169.986 7.28387 170.035 7.16714 170.058 7.04388C170.095 6.82253 170.052 6.59503 169.934 6.40352C169.817 6.20966 169.637 6.06228 169.423 5.98641C169.21 5.92095 168.98 5.94206 168.783 6.04516L168.812 6.09216L168.659 6.18616L168.63 6.12741C168.443 6.23815 168.246 6.3325 168.043 6.4094C167.691 6.53249 167.332 6.63257 166.968 6.70901C166.216 6.86872 165.454 6.97862 164.688 7.038C163.022 7.16726 161.349 7.16726 159.683 7.038C159.095 6.991 158.778 6.944 158.314 6.87938L158.073 6.84413C157.433 6.75014 156.763 6.66789 156.152 6.60327C154.912 6.45 153.665 6.36762 152.416 6.35653Z" fill="#979797"/>
<path d="M117.76 25.9842C117.639 25.8671 117.496 25.7763 117.338 25.7177C117.18 25.659 117.012 25.6338 116.844 25.6435V25.9431V25.6435L107.291 25.7492C105.8 25.7738 104.309 25.6597 102.838 25.4085C101.967 25.2975 101.139 24.9681 100.43 24.4509L99.7599 23.787L99.5484 23.9985L99.3369 24.21L99.4133 24.2805L98.7788 25.6317L98.6907 25.7845L98.6143 25.8667C99.4524 26.7361 100.507 27.3667 101.669 27.6938C102.909 28.058 104.994 28.2343 107.891 28.2343H116.321V27.9346V28.2343C116.757 28.2604 117.19 28.145 117.555 27.9053C117.711 27.7801 117.835 27.6194 117.917 27.4365C117.999 27.2536 118.036 27.0537 118.025 26.8537C118.043 26.5416 117.949 26.2332 117.76 25.9842Z" fill="#979797"/>
<path d="M104.571 23.6578C104.563 23.824 104.59 23.9901 104.651 24.1451C104.712 24.3001 104.805 24.4403 104.924 24.5566C105.203 24.7781 105.555 24.8871 105.911 24.8621C107.203 24.8621 108.149 24.4979 108.707 23.7459C108.874 23.4919 108.991 23.2089 109.054 22.9117C109.167 22.4575 109.249 21.9963 109.301 21.5311C109.43 20.4227 109.543 18.8052 109.641 16.6785L109.712 14.9866C109.727 14.7638 109.693 14.5404 109.614 14.3316C109.535 14.1228 109.412 13.9335 109.254 13.7764C108.87 13.4853 108.394 13.3433 107.914 13.3769H105.923L105.993 11.3971V10.8566H108.69C108.993 10.8808 109.294 10.786 109.53 10.5923C109.306 11.0211 109.071 11.4441 108.831 11.8612C108.697 12.0553 108.612 12.2791 108.584 12.5133C108.564 12.8002 108.654 13.0839 108.836 13.3064C108.933 13.4049 109.049 13.4812 109.178 13.5299C109.307 13.5786 109.445 13.5986 109.583 13.5884C109.79 13.5749 109.986 13.4873 110.135 13.3417C110.302 13.1928 110.452 13.0252 110.581 12.8423C110.568 12.9711 110.582 13.1011 110.622 13.2242C110.66 13.3577 110.728 13.4805 110.822 13.5826C110.916 13.6847 111.033 13.7632 111.163 13.8116C111.285 13.8574 111.416 13.8716 111.545 13.8528H115.575L114.4 14.7046C114.075 14.908 113.809 15.1938 113.63 15.533C113.447 15.8782 113.354 16.2642 113.36 16.655V17.4893H111.051C110.753 17.4697 110.459 17.5643 110.229 17.7536C110.13 17.8586 110.055 17.9826 110.006 18.118C109.958 18.2534 109.937 18.3973 109.947 18.5409C109.938 18.684 109.958 18.8274 110.008 18.962C110.058 19.0965 110.135 19.2192 110.235 19.3222C110.464 19.5102 110.755 19.6046 111.051 19.5866H113.36V22.2361C113.38 22.3271 113.38 22.4213 113.36 22.5122C113.331 22.5985 113.283 22.6769 113.219 22.7413C113.159 22.8054 113.085 22.8539 113.002 22.8823C112.919 22.9032 112.832 22.9032 112.749 22.8823H111.903C111.751 22.8719 111.599 22.8925 111.456 22.9431C111.312 22.9936 111.181 23.0729 111.069 23.1761C110.867 23.4077 110.763 23.7093 110.781 24.0162C110.77 24.1648 110.791 24.3141 110.843 24.4539C110.895 24.5938 110.976 24.7209 111.081 24.8269C111.321 25.0193 111.626 25.11 111.932 25.0795H113.019C113.347 25.1433 113.685 25.128 114.006 25.0351C114.327 24.9421 114.621 24.7741 114.864 24.5449C115.296 23.9819 115.506 23.2789 115.451 22.571V19.5924H117.907C118.206 19.6151 118.502 19.5227 118.735 19.334C118.838 19.2328 118.918 19.1106 118.968 18.9756C119.019 18.8407 119.04 18.6964 119.029 18.5526C119.037 18.4082 119.015 18.2637 118.965 18.1282C118.914 17.9927 118.836 17.8692 118.735 17.7654C118.5 17.5758 118.203 17.4814 117.901 17.501H115.446V16.7079C115.456 16.5216 115.51 16.3403 115.604 16.1792C115.692 16.0174 115.817 15.8785 115.968 15.7738L117.895 14.17C118.116 14.0011 118.314 13.8035 118.483 13.5825C118.568 13.4738 118.629 13.3483 118.662 13.2143C118.695 13.0804 118.7 12.9409 118.675 12.8051C118.651 12.6692 118.598 12.5401 118.52 12.426C118.443 12.312 118.342 12.2156 118.224 12.1432C117.836 11.9395 117.399 11.8461 116.961 11.873H111.504C111.375 11.8542 111.243 11.8683 111.122 11.9141C111.386 11.4382 111.662 10.8566 111.956 10.1517H117.784C118.091 10.1806 118.397 10.0877 118.636 9.89316C118.74 9.78586 118.821 9.65763 118.873 9.5169C118.924 9.37617 118.946 9.22611 118.935 9.07656C118.944 8.92626 118.922 8.77568 118.871 8.6342C118.819 8.49271 118.739 8.36333 118.636 8.25409C118.399 8.05322 118.093 7.95396 117.784 7.97798H112.896C113.09 7.49037 113.237 7.07913 113.342 6.75014C113.442 6.47382 113.503 6.18527 113.524 5.89243C113.533 5.7508 113.514 5.60884 113.467 5.47474C113.421 5.34063 113.349 5.21704 113.254 5.11108C113.149 5.01614 113.025 4.94332 112.891 4.89691C112.757 4.8505 112.615 4.83143 112.473 4.84084C112.218 4.83918 111.971 4.93596 111.786 5.11108C111.583 5.31599 111.436 5.56853 111.357 5.84543C110.953 7.25969 110.427 8.63577 109.782 9.95778C109.789 9.88154 109.789 9.80491 109.782 9.72866C109.792 9.57832 109.77 9.42766 109.718 9.28612C109.667 9.14458 109.587 9.01523 109.483 8.90619C109.248 8.7068 108.944 8.60764 108.637 8.63008H107.197V6.08042C107.225 5.75549 107.133 5.43154 106.939 5.16983C106.834 5.05927 106.706 4.97345 106.563 4.91858C106.421 4.86371 106.268 4.84117 106.116 4.85259C105.964 4.84193 105.81 4.8648 105.667 4.91959C105.524 4.97439 105.395 5.05979 105.288 5.16983C105.087 5.42882 104.988 5.7532 105.012 6.08042V8.67708H102.909C102.6 8.65787 102.296 8.76131 102.063 8.96494C101.963 9.07385 101.887 9.2019 101.838 9.34129C101.79 9.48067 101.77 9.62846 101.781 9.77566C101.771 9.92202 101.792 10.0689 101.842 10.2066C101.893 10.3443 101.972 10.4697 102.075 10.5746C102.307 10.769 102.606 10.8658 102.909 10.8449H103.984V12.1843C103.937 16.7784 103.255 20.0154 101.969 21.9306C101.787 22.1667 101.669 22.4461 101.628 22.7413C101.61 23.0316 101.7 23.3184 101.881 23.5462C101.976 23.6465 102.092 23.7247 102.221 23.7755C102.35 23.8262 102.489 23.8482 102.627 23.8399C102.787 23.8288 102.943 23.785 103.085 23.7112C103.228 23.6375 103.354 23.5353 103.455 23.4111C103.764 23.0586 104.019 22.6627 104.213 22.2361C104.732 21.2532 105.106 20.2006 105.323 19.1107C105.559 17.8889 105.71 16.6523 105.776 15.4096H107.162C107.224 15.392 107.289 15.392 107.35 15.4096C107.414 15.4321 107.47 15.4705 107.515 15.5212C107.558 15.5724 107.59 15.6326 107.609 15.6975C107.623 15.7672 107.623 15.8392 107.609 15.9089L107.491 19.0167C107.438 19.8979 107.379 20.6147 107.309 21.161C107.273 21.5393 107.192 21.912 107.068 22.2713C107.014 22.3768 106.93 22.4644 106.827 22.524C106.724 22.5763 106.607 22.5948 106.492 22.5768H105.764C105.448 22.5571 105.136 22.6509 104.883 22.8412C104.77 22.9434 104.684 23.0706 104.63 23.2124C104.576 23.3543 104.556 23.5068 104.571 23.6578Z" fill="#979797"/>
<path d="M113.272 25.2616H112.919H111.838C111.511 25.2899 111.185 25.1911 110.928 24.9855C110.814 24.8714 110.726 24.7343 110.669 24.5833C110.612 24.4324 110.588 24.2711 110.599 24.1101C110.579 23.7792 110.691 23.4538 110.91 23.2054C111.031 23.0942 111.172 23.0087 111.327 22.9541C111.481 22.8996 111.646 22.8771 111.809 22.8882H112.667C112.736 22.9088 112.809 22.9088 112.878 22.8882C112.951 22.8638 113.017 22.8223 113.07 22.767C113.123 22.7118 113.162 22.6445 113.184 22.571C113.199 22.4913 113.199 22.4097 113.184 22.3301V19.6806H110.963C110.645 19.6988 110.333 19.596 110.088 19.3927C109.979 19.2818 109.894 19.1492 109.839 19.0034C109.785 18.8577 109.761 18.7021 109.771 18.5467C109.761 18.3909 109.784 18.2349 109.837 18.0883C109.891 17.9417 109.974 17.8078 110.082 17.6949C110.329 17.4907 110.643 17.3878 110.963 17.407H113.184V16.6609C113.175 16.2522 113.27 15.8478 113.46 15.486C113.648 15.1341 113.926 14.8382 114.265 14.6282L115.234 13.935H111.504C111.365 13.9511 111.224 13.935 111.092 13.888C110.953 13.8391 110.826 13.7577 110.724 13.6504C110.622 13.5432 110.547 13.4132 110.505 13.2712C110.482 13.2108 110.468 13.1475 110.464 13.0832C110.372 13.1985 110.27 13.3048 110.158 13.4004C110.001 13.5571 109.792 13.6529 109.571 13.6706C109.456 13.6715 109.342 13.6596 109.23 13.6354L109.318 13.7C109.487 13.8648 109.617 14.064 109.702 14.284C109.786 14.5041 109.821 14.7398 109.806 14.9748L109.735 16.6785C109.635 18.8052 109.524 20.4384 109.395 21.537C109.341 22.0058 109.259 22.4708 109.148 22.9293C109.082 23.2375 108.958 23.5304 108.784 23.7929C108.196 24.5566 107.256 24.9679 105.917 24.9679C105.539 24.9925 105.166 24.8752 104.871 24.6389C104.74 24.5163 104.638 24.3664 104.572 24.1999C104.506 24.0333 104.478 23.8542 104.489 23.6754C104.48 23.5166 104.506 23.3577 104.566 23.2103C104.626 23.063 104.718 22.9308 104.836 22.8236C105.105 22.6196 105.439 22.5195 105.776 22.5416H106.545C106.64 22.5582 106.737 22.5416 106.821 22.4946C106.909 22.4473 106.979 22.3732 107.021 22.2831C107.143 21.9337 107.222 21.5707 107.256 21.2021C107.327 20.6499 107.391 19.9332 107.438 19.0637L107.562 15.9383C107.573 15.8782 107.573 15.8163 107.562 15.7562C107.546 15.7032 107.518 15.6548 107.479 15.6152C107.446 15.5757 107.404 15.5454 107.356 15.5271C107.31 15.5156 107.261 15.5156 107.215 15.5271H105.893C105.827 16.746 105.678 17.959 105.447 19.1577C105.225 20.2549 104.85 21.3151 104.33 22.3066C104.129 22.7342 103.865 23.13 103.549 23.4815C103.44 23.6139 103.305 23.7224 103.153 23.8002C103 23.8781 102.833 23.9236 102.662 23.9339C102.511 23.9433 102.359 23.9192 102.218 23.8634C102.077 23.8075 101.949 23.7213 101.845 23.6108C101.654 23.3651 101.558 23.0583 101.575 22.7472C101.619 22.4352 101.742 22.1398 101.934 21.8895C103.208 19.986 103.884 16.7255 103.931 12.1961V10.933H102.956C102.629 10.957 102.306 10.8515 102.057 10.6392C101.947 10.5255 101.861 10.3898 101.807 10.2411C101.752 10.0923 101.729 9.93377 101.74 9.77565C101.729 9.61624 101.752 9.4564 101.805 9.3059C101.859 9.15539 101.942 9.01738 102.051 8.90031C102.174 8.79078 102.317 8.70682 102.472 8.65335C102.627 8.59988 102.792 8.57798 102.956 8.58894H104.971V6.08041C104.947 5.73137 105.054 5.38607 105.27 5.11107C105.385 4.99195 105.525 4.89925 105.679 4.83939C105.833 4.77954 105.998 4.75397 106.163 4.76445C106.328 4.75363 106.492 4.77907 106.646 4.83897C106.799 4.89887 106.937 4.99177 107.05 5.11107C107.262 5.38779 107.362 5.73345 107.332 6.08041V8.58894H108.684C109.015 8.56717 109.341 8.67457 109.594 8.88856C109.78 9.08034 109.891 9.33272 109.906 9.59941C110.457 8.39567 110.913 7.15026 111.269 5.87479C111.351 5.5803 111.507 5.31148 111.721 5.09344C111.922 4.90298 112.19 4.79953 112.467 4.80558C112.621 4.79454 112.775 4.81489 112.92 4.86539C113.066 4.91589 113.199 4.99548 113.313 5.09932C113.416 5.21248 113.495 5.34518 113.545 5.48951C113.596 5.63383 113.617 5.78684 113.607 5.93941C113.587 6.24066 113.523 6.53744 113.419 6.82063C113.325 7.12612 113.19 7.50211 113.019 7.93684H117.778C118.101 7.91756 118.42 8.02029 118.671 8.22471C118.783 8.34219 118.87 8.48168 118.925 8.63437C118.981 8.78706 119.004 8.94963 118.994 9.1118C119.005 9.27224 118.982 9.43319 118.926 9.58405C118.87 9.73492 118.783 9.87229 118.671 9.98714C118.545 10.0932 118.399 10.1729 118.241 10.2213C118.084 10.2697 117.918 10.286 117.754 10.2691H111.991C111.739 10.8566 111.498 11.356 111.269 11.7848C111.344 11.773 111.422 11.773 111.498 11.7848H116.838C117.293 11.7561 117.747 11.8558 118.148 12.0727C118.31 12.1715 118.442 12.3119 118.531 12.4794C118.62 12.6468 118.662 12.8351 118.653 13.0244C118.638 13.238 118.561 13.4423 118.43 13.6119C118.261 13.8329 118.063 14.0304 117.842 14.1994L115.757 15.9324C115.672 16.01 115.6 16.1013 115.545 16.2027C115.462 16.355 115.412 16.5232 115.399 16.6962V17.4011H117.748C118.071 17.3802 118.39 17.4808 118.641 17.6831C118.752 17.7946 118.838 17.928 118.893 18.0748C118.949 18.2215 118.973 18.3783 118.965 18.535C118.979 18.6897 118.96 18.8457 118.91 18.9926C118.859 19.1395 118.778 19.2739 118.671 19.3868C118.422 19.5908 118.105 19.6918 117.784 19.6688H115.434V22.6062C115.497 23.3332 115.288 24.0578 114.846 24.6389C114.646 24.852 114.401 25.0183 114.129 25.1259C113.856 25.2335 113.564 25.2799 113.272 25.2616ZM112.925 25.0677C113.238 25.1275 113.561 25.1129 113.867 25.0251C114.173 24.9374 114.454 24.7789 114.688 24.5625C115.099 24.0129 115.296 23.3317 115.24 22.6473V19.5043H117.784C118.061 19.5273 118.336 19.4432 118.553 19.2693C118.724 19.0694 118.817 18.8153 118.817 18.5526C118.817 18.2899 118.724 18.0358 118.553 17.8359C118.335 17.6595 118.058 17.5733 117.778 17.595H115.234V16.7079C115.245 16.5091 115.3 16.3152 115.397 16.1412C115.494 15.9671 115.629 15.8173 115.792 15.7033L117.743 14.0995C117.965 13.9325 118.163 13.7347 118.33 13.512C118.446 13.3659 118.514 13.1873 118.524 13.0009C118.527 12.8433 118.487 12.6878 118.41 12.5504C118.332 12.4131 118.22 12.2989 118.083 12.2196C117.709 12.0258 117.288 11.9365 116.867 11.9611H111.504C111.385 11.9426 111.264 11.9548 111.151 11.9963L110.934 12.0727L111.039 11.8671C111.298 11.3971 111.58 10.8214 111.874 10.1458V10.0929H117.748C118.033 10.1184 118.317 10.0344 118.542 9.8579C118.637 9.75832 118.71 9.63998 118.756 9.51048C118.803 9.38098 118.822 9.24318 118.812 9.10593C118.821 8.96783 118.802 8.82931 118.755 8.69894C118.709 8.56858 118.636 8.44916 118.542 8.34808C118.32 8.16422 118.036 8.07364 117.748 8.09546H112.731L112.778 7.97209C112.972 7.49036 113.119 7.07912 113.225 6.75013C113.321 6.48321 113.38 6.20458 113.401 5.92179C113.418 5.66054 113.331 5.40317 113.16 5.20506C113.062 5.11849 112.948 5.05254 112.823 5.01116C112.699 4.96978 112.568 4.95381 112.438 4.9642C112.323 4.961 112.209 4.98066 112.102 5.02201C111.995 5.06337 111.898 5.12559 111.815 5.20506C111.622 5.39952 111.483 5.64025 111.41 5.90416C111.011 7.32639 110.493 8.712 109.859 10.0459L109.688 9.99302C109.694 9.92068 109.694 9.84799 109.688 9.77565C109.698 9.63756 109.678 9.49903 109.632 9.36867C109.585 9.23831 109.513 9.11888 109.418 9.0178C109.199 8.83375 108.916 8.74304 108.631 8.76519H107.103V6.08041C107.131 5.77733 107.048 5.47448 106.868 5.22856C106.771 5.12774 106.653 5.04966 106.522 4.9999C106.391 4.95014 106.25 4.92992 106.111 4.9407C105.97 4.93026 105.829 4.95061 105.697 5.00033C105.565 5.05005 105.446 5.12793 105.347 5.22856C105.163 5.47279 105.073 5.77529 105.094 6.08041V8.76519H102.903C102.619 8.74495 102.338 8.83786 102.122 9.02368C102.03 9.1254 101.961 9.24435 101.916 9.3735C101.872 9.50266 101.854 9.6394 101.863 9.77565C101.853 9.90976 101.871 10.0445 101.917 10.171C101.963 10.2975 102.034 10.413 102.127 10.51C102.343 10.6917 102.621 10.7823 102.903 10.7626H104.078V12.1843C104.031 16.749 103.349 20.0448 102.045 21.9776C101.875 22.2052 101.764 22.4717 101.722 22.7531C101.702 23.0253 101.784 23.2953 101.951 23.5109C102.038 23.6025 102.145 23.6736 102.262 23.7193C102.38 23.765 102.507 23.7841 102.633 23.7753C102.78 23.764 102.924 23.7227 103.056 23.654C103.187 23.5853 103.303 23.4907 103.396 23.3758C103.701 23.0229 103.953 22.627 104.142 22.2008C104.656 21.225 105.026 20.1803 105.241 19.0989C105.477 17.8811 105.628 16.6484 105.693 15.4096V15.3273H107.144C107.223 15.3067 107.306 15.3067 107.385 15.3273C107.459 15.3579 107.525 15.404 107.579 15.4625C107.633 15.524 107.673 15.5961 107.697 15.6739C107.715 15.7572 107.715 15.8434 107.697 15.9266L107.579 19.0402C107.526 19.9155 107.468 20.6381 107.397 21.1904C107.361 21.5769 107.278 21.9577 107.15 22.3242C107.087 22.4473 106.989 22.5494 106.868 22.618C106.75 22.6834 106.613 22.7062 106.481 22.6826H105.74C105.445 22.6627 105.151 22.748 104.912 22.9234C104.815 23.0143 104.739 23.1258 104.69 23.2498C104.641 23.3739 104.621 23.5072 104.63 23.6402C104.62 23.7943 104.644 23.9487 104.7 24.0927C104.756 24.2367 104.842 24.3669 104.953 24.4744C105.216 24.6811 105.548 24.7817 105.881 24.7564C107.162 24.7564 108.079 24.3921 108.607 23.6754C108.767 23.4321 108.881 23.1612 108.942 22.8764C109.053 22.4242 109.134 21.9649 109.183 21.5017C109.312 20.409 109.424 18.7817 109.524 16.655L109.594 14.9631C109.61 14.7533 109.58 14.5426 109.506 14.3457C109.432 14.1487 109.316 13.9705 109.165 13.8234C108.799 13.545 108.344 13.4093 107.885 13.4415H105.805L105.876 11.356V10.7391H108.66C108.942 10.7589 109.222 10.6707 109.442 10.4924L109.577 10.5981C109.359 11.027 109.118 11.4558 108.872 11.873C108.75 12.0589 108.672 12.2697 108.643 12.4898C108.622 12.7567 108.704 13.0214 108.872 13.23C108.96 13.3188 109.067 13.3874 109.185 13.431C109.302 13.4746 109.428 13.4922 109.553 13.4826C109.74 13.4679 109.915 13.3866 110.047 13.2535C110.21 13.1104 110.356 12.9487 110.481 12.7718L110.64 12.5544V12.854C110.626 12.9743 110.638 13.0963 110.677 13.2111C110.715 13.3259 110.779 13.4307 110.863 13.5179C110.947 13.6049 111.049 13.6713 111.163 13.7118C111.272 13.7523 111.389 13.7645 111.504 13.747H115.822L114.4 14.7634C114.085 14.9561 113.827 15.23 113.654 15.5564C113.477 15.8888 113.388 16.2609 113.395 16.6374V17.5598H110.998C110.724 17.5402 110.453 17.6264 110.24 17.8006C110.15 17.8967 110.08 18.0105 110.036 18.1349C109.991 18.2592 109.973 18.3915 109.982 18.5232C109.973 18.6546 109.992 18.7863 110.038 18.9098C110.083 19.0334 110.154 19.1459 110.246 19.2399C110.457 19.4132 110.726 19.4994 110.998 19.4808H113.384V22.2185C113.396 22.3255 113.384 22.434 113.348 22.5357C113.318 22.6354 113.263 22.7262 113.19 22.8001C113.121 22.8759 113.034 22.9326 112.937 22.9646C112.846 23.0002 112.747 23.0123 112.649 22.9998H111.809C111.67 22.9892 111.529 23.0072 111.397 23.0526C111.265 23.0981 111.143 23.1701 111.039 23.2642C110.946 23.3702 110.874 23.494 110.828 23.6282C110.783 23.7624 110.765 23.9042 110.775 24.0455C110.766 24.1819 110.785 24.3186 110.831 24.4471C110.878 24.5756 110.951 24.6929 111.045 24.7916C111.272 24.96 111.551 25.0414 111.833 25.0207L112.925 25.0677ZM105.993 13.3182H107.891C108.192 13.3131 108.492 13.3588 108.778 13.4533L108.731 13.4063C108.534 13.1654 108.435 12.859 108.455 12.5486C108.489 12.3032 108.577 12.0685 108.713 11.8612C108.901 11.544 109.083 11.215 109.259 10.886C109.072 10.9577 108.873 10.9936 108.672 10.9917H106.069V11.5322L105.993 13.3182Z" fill="#979797"/>
<path d="M95.1717 10.7626H95.2069L95.2833 10.6745C95.4274 10.5145 95.5868 10.3689 95.7591 10.2398C95.8531 10.1751 95.953 10.1164 96.047 10.0635H96.1116H96.1939H96.2702H96.3231H96.4759L96.5934 10.1046H96.6286C96.6828 10.1368 96.7322 10.1764 96.7755 10.2221C97.1805 10.7311 97.7493 11.084 98.3852 11.2209C99.001 11.2781 99.6213 11.1791 100.189 10.933C100.443 10.8507 100.654 10.6712 100.776 10.4336C100.895 10.1934 100.928 9.91981 100.87 9.65816C100.807 9.40106 100.647 9.17817 100.424 9.03543C100.318 8.96522 100.197 8.91934 100.071 8.90106C99.9454 8.88277 99.817 8.89255 99.6952 8.92969C99.4494 9.0283 99.1959 9.10689 98.9374 9.16468H98.6378H98.6025C98.4202 9.04348 98.2577 8.89486 98.1208 8.72407C97.8647 8.47135 97.5613 8.2717 97.2278 8.13659C96.9335 8.02834 96.6201 7.98137 96.3069 7.99854C95.9938 8.01572 95.6874 8.09668 95.4066 8.23646C94.8439 8.51208 94.3378 8.89068 93.9145 9.35267C93.7393 9.55448 93.6451 9.81399 93.6501 10.0811C93.652 10.3474 93.7501 10.604 93.9262 10.8037C94.0028 10.8932 94.0963 10.9665 94.2013 11.0197C94.3063 11.0728 94.4208 11.1047 94.5382 11.1134C94.6556 11.1222 94.7735 11.1076 94.8853 11.0706C94.997 11.0336 95.1003 10.9748 95.1893 10.8977L95.1717 10.7626ZM96.3936 9.94015L96.3584 9.8109C96.3584 9.8109 96.3584 9.84028 96.3584 9.85203C96.356 9.86366 96.356 9.87565 96.3584 9.88728L96.3936 9.94015ZM96.4406 9.84615C96.4384 9.83649 96.4384 9.82644 96.4406 9.81678C96.4439 9.83227 96.4439 9.84829 96.4406 9.86378V9.84615ZM98.5732 9.19993L98.6202 9.1118H98.6495C98.6518 9.12345 98.6518 9.13541 98.6495 9.14705C98.6529 9.16254 98.6529 9.17856 98.6495 9.19405C98.6524 9.20761 98.6524 9.22162 98.6495 9.23517L98.5732 9.19993Z" fill="#979797"/>
<path d="M98.767 11.2385C98.6555 11.2443 98.5437 11.2443 98.4322 11.2385H98.4028C97.7488 11.0929 97.1642 10.728 96.7461 10.2045L96.6345 10.1105L96.4641 10.0694V10.1575L96.4347 10.0694L96.3877 10.0988H96.3231H96.2526H96.188H96.1527L95.8649 10.2809C95.6989 10.4025 95.5472 10.5424 95.4125 10.698L95.2833 10.839H95.2363C95.0676 10.9681 94.8612 11.0383 94.6488 11.0387C94.5093 11.0371 94.3717 11.0059 94.2451 10.9471C94.1185 10.8884 94.0058 10.8035 93.9145 10.698C93.7212 10.4825 93.6144 10.2032 93.6144 9.91371C93.6144 9.62425 93.7212 9.34497 93.9145 9.12943C94.3514 8.65878 94.8712 8.27245 95.4478 7.98972C95.7377 7.8426 96.055 7.75724 96.3796 7.73904C96.7042 7.72084 97.029 7.77019 97.3336 7.88397C97.6798 8.02737 97.9935 8.23918 98.2559 8.5067C98.3863 8.66637 98.5386 8.8068 98.7083 8.92381H98.7494H99.0138C99.2669 8.86987 99.5147 8.79318 99.754 8.69469L99.8715 8.64769C100.114 8.60533 100.363 8.65566 100.571 8.78869C100.814 8.94456 100.986 9.18901 101.052 9.47017C101.121 9.75312 101.085 10.0512 100.952 10.3103C100.834 10.5595 100.623 10.7532 100.365 10.8507C99.8668 11.0945 99.3215 11.2268 98.767 11.2385ZM96.5229 9.87553L96.6991 9.93427C96.7526 9.97416 96.8037 10.0173 96.8518 10.0635C97.2466 10.5597 97.8007 10.9043 98.4204 11.0387C99.0222 11.0916 99.6276 10.9947 100.183 10.7567C100.294 10.7181 100.397 10.6577 100.485 10.5791C100.572 10.5004 100.643 10.405 100.694 10.2985C100.808 10.0778 100.839 9.82355 100.782 9.58179C100.728 9.34079 100.583 9.13013 100.377 8.99431C100.28 8.93197 100.172 8.89128 100.058 8.87506C99.9445 8.85883 99.8287 8.86744 99.7187 8.90031C99.4641 8.99845 99.2031 9.07893 98.9374 9.14118H98.8082V9.28805H98.767V9.14118H98.7377C98.7377 9.17055 98.7377 9.18817 98.7377 9.2058V9.27042H98.626C98.626 9.27042 98.626 9.27042 98.5497 9.27042V9.18817V9.27042H98.4263L98.5144 9.1118C98.3407 8.98859 98.1846 8.84234 98.0503 8.67707C97.802 8.42584 97.5066 8.22618 97.1808 8.08959C96.8966 7.98131 96.5927 7.93424 96.289 7.95144C95.9853 7.96865 95.6886 8.04976 95.4184 8.18946C94.8665 8.46134 94.3687 8.83164 93.9497 9.28217C93.7904 9.47089 93.7049 9.71087 93.7088 9.95777C93.7094 10.2024 93.7992 10.4385 93.9615 10.6216C94.0345 10.7067 94.1245 10.7757 94.2256 10.8242C94.3267 10.8728 94.4368 10.8998 94.5489 10.9036C94.7405 10.9018 94.9254 10.8333 95.0718 10.7097L95.1188 10.6686L95.154 10.6334C95.3007 10.4681 95.4641 10.3184 95.6416 10.1869C95.7533 10.1105 95.8473 10.0518 95.9413 9.9989L96.0059 9.96952H96.0587L96.1527 9.94015H96.2174L96.1704 9.76978H96.4524V9.85203C96.4778 9.85203 96.5025 9.86027 96.5229 9.87553Z" fill="#979797"/>
<path d="M95.1716 16.2673H95.2069L95.295 16.1674C95.4342 16.0064 95.592 15.8625 95.765 15.7386C95.8573 15.6723 95.9535 15.6115 96.0529 15.5564L96.1997 15.4977L96.3231 15.4683H96.4817L96.5933 15.4977C96.6475 15.5299 96.6969 15.5694 96.7402 15.6152C97.1397 16.1275 97.708 16.4814 98.344 16.6139C98.9603 16.6673 99.5801 16.5663 100.148 16.3202C100.274 16.2803 100.391 16.2156 100.492 16.1298C100.593 16.0441 100.675 15.939 100.735 15.8208C100.854 15.5806 100.887 15.307 100.829 15.0453C100.765 14.7882 100.606 14.5653 100.383 14.4226C100.276 14.3539 100.155 14.3089 100.03 14.2906C99.9041 14.2724 99.776 14.2813 99.6541 14.3169C99.407 14.4163 99.1514 14.4929 98.8904 14.546H98.5966H98.5555C98.3866 14.4186 98.2364 14.2684 98.109 14.0995C97.8549 13.8472 97.5534 13.6475 97.2219 13.512C96.9276 13.4038 96.6142 13.3568 96.301 13.374C95.9879 13.3911 95.6815 13.4721 95.4008 13.6119C94.8411 13.8778 94.3337 14.2419 93.9027 14.687C93.7243 14.8888 93.6258 15.149 93.6258 15.4184C93.6258 15.6878 93.7243 15.9479 93.9027 16.1498C93.9783 16.2406 94.0714 16.3152 94.1765 16.3693C94.2816 16.4234 94.3965 16.4557 94.5143 16.4645C94.6321 16.4733 94.7505 16.4582 94.8625 16.4203C94.9744 16.3824 95.0775 16.3224 95.1658 16.2438L95.1716 16.2673ZM96.4053 15.4389V15.3391C96.4053 15.3391 96.4053 15.3391 96.4053 15.3743V15.4389ZM96.4465 15.345C96.4428 15.3355 96.4428 15.325 96.4465 15.3156C96.4465 15.3156 96.4465 15.3508 96.4465 15.3685V15.345ZM98.6495 14.5871C98.6517 14.5987 98.6517 14.6107 98.6495 14.6224C98.6524 14.6359 98.6524 14.6499 98.6495 14.6635C98.6524 14.679 98.6524 14.6949 98.6495 14.7105H98.5673L98.6143 14.6224L98.6495 14.5871Z" fill="#979797"/>
<path d="M98.7611 16.7373H98.438H98.4086C97.7555 16.5932 97.171 16.2305 96.752 15.7092C96.7168 15.6714 96.6774 15.6379 96.6345 15.6093H96.5933H96.5228H96.4876L96.4523 15.7268L96.4171 15.6093L96.3407 15.6681V15.627H96.2937L96.1175 15.6974C96.0193 15.7493 95.9251 15.8082 95.8355 15.8737C95.6677 15.9952 95.514 16.1351 95.3773 16.2908L95.2363 16.4553L95.1951 16.42C94.9968 16.5723 94.7473 16.642 94.4988 16.6146C94.2503 16.5872 94.022 16.4649 93.8616 16.2732C93.6651 16.0569 93.5562 15.7752 93.5562 15.483C93.5562 15.1908 93.6651 14.9091 93.8616 14.6929C94.2817 14.208 94.7901 13.8073 95.3596 13.512C95.6496 13.3649 95.9668 13.2795 96.2914 13.2613C96.616 13.2431 96.9409 13.2925 97.2454 13.4063C97.583 13.5402 97.8905 13.7399 98.1502 13.9938C98.2827 14.159 98.4391 14.3035 98.6143 14.4226H98.8963C99.1464 14.3671 99.3919 14.2925 99.6306 14.1994L99.754 14.1524C99.9957 14.1053 100.246 14.1537 100.453 14.2875C100.696 14.4434 100.869 14.6878 100.935 14.969C101.003 15.2519 100.968 15.55 100.835 15.8091C100.716 16.0583 100.506 16.252 100.247 16.3496C99.7831 16.5774 99.2776 16.7092 98.7611 16.7373ZM96.5405 15.3802L96.658 15.4155H96.7108C96.7689 15.454 96.8221 15.4994 96.8695 15.5506C97.265 16.0432 97.8159 16.387 98.4321 16.5258C99.0344 16.5771 99.64 16.4782 100.195 16.2379C100.306 16.2002 100.409 16.1402 100.497 16.0614C100.585 15.9826 100.656 15.8868 100.706 15.7797C100.82 15.559 100.851 15.3047 100.794 15.063C100.74 14.822 100.595 14.6113 100.388 14.4755C100.292 14.4138 100.183 14.3739 100.069 14.3587C99.9556 14.3435 99.8399 14.3533 99.7305 14.3874C99.4763 14.4853 99.2151 14.5638 98.9491 14.6224H98.7435C98.749 14.6455 98.749 14.6697 98.7435 14.6929V14.7516H98.6436L98.5555 14.7222H98.5203L98.4498 14.6752L98.5203 14.5519C98.3477 14.4273 98.1918 14.2812 98.0562 14.1171C97.8068 13.8672 97.5116 13.6677 97.1867 13.5296C96.9058 13.4286 96.6072 13.3859 96.3093 13.4041C96.0113 13.4223 95.7202 13.501 95.4536 13.6354C94.9028 13.9187 94.4089 14.301 93.9967 14.7634C93.8309 14.9513 93.7408 15.1942 93.7441 15.4448C93.7403 15.692 93.8306 15.9314 93.9967 16.1146C94.1382 16.2741 94.3361 16.3725 94.5487 16.389C94.7614 16.4054 94.9721 16.3386 95.1364 16.2027L95.1893 16.1557L95.2304 16.1146C95.3741 15.9481 95.5379 15.8002 95.718 15.6739C95.8123 15.6058 95.9104 15.5431 96.0117 15.486H96.0529L96.2996 15.4037V15.3626H96.3583V15.2451H96.5287V15.3332C96.5314 15.3547 96.5314 15.3764 96.5287 15.3978L96.5405 15.3802Z" fill="#979797"/>
<path d="M101.046 22.9939C100.926 21.927 100.52 20.9123 99.8715 20.0565L99.8186 20.0977L99.8715 20.0565C99.5413 19.634 99.1172 19.2944 98.6328 19.0645C98.1483 18.8346 97.617 18.7208 97.0809 18.7322C96.5448 18.7436 96.0188 18.8799 95.5446 19.1302C95.0704 19.3805 94.6611 19.7379 94.3492 20.174C94.179 20.401 94.0881 20.6776 94.0907 20.9613C94.0878 21.2532 94.1853 21.5374 94.3668 21.7661H94.402H94.3668L94.59 21.5722L94.3668 21.7661C94.4609 21.8752 94.5772 21.9631 94.7078 22.0239C94.8385 22.0846 94.9806 22.1169 95.1246 22.1186C95.233 22.1172 95.3403 22.0973 95.4419 22.0598C95.2315 22.1679 95.0343 22.3 94.8544 22.4535L94.9014 22.5122L94.8544 22.4535C94.4304 22.7969 94.0919 23.234 93.8656 23.7305C93.6393 24.227 93.5313 24.7692 93.5502 25.3145H93.8498H93.5502C93.582 25.8654 93.7628 26.3973 94.0732 26.8536C94.3835 27.3099 94.8119 27.6733 95.3126 27.9053L95.342 27.8524L95.3126 27.9053L95.4243 27.6409L95.3068 27.917C96.137 28.2676 97.0496 28.3756 97.9387 28.2284C98.4944 28.1785 99.0253 27.9751 99.472 27.6409C99.9459 27.2754 100.323 26.7993 100.571 26.2544L100.294 26.1311L100.571 26.2544C101.013 25.2283 101.177 24.1037 101.046 22.9939ZM97.7389 21.1493L97.8388 20.8908L97.7448 21.1551L97.8388 20.8908L97.7389 21.1493ZM96.4993 21.1493C96.4837 21.1708 96.4637 21.1889 96.4406 21.2021L96.4993 21.1493ZM97.0105 25.9725H96.7578H96.6697H96.6169C96.4979 25.9519 96.3802 25.9245 96.2644 25.8902L96.0999 25.8315L96.0176 25.7903H95.9824L95.8708 25.7198L95.812 25.667L95.7591 25.6082L95.7298 25.573V25.5377V25.5083L95.6945 25.432C95.6945 25.432 95.6945 25.432 95.6945 25.4026C95.6973 25.3851 95.6973 25.3672 95.6945 25.3497C95.6939 25.3399 95.6939 25.3301 95.6945 25.3204V25.1735C95.6974 25.1599 95.6974 25.1459 95.6945 25.1324C95.6945 25.0971 95.7063 25.056 95.7298 25.009L95.812 24.8445L95.8531 24.7857C95.9774 24.602 96.1532 24.4589 96.3584 24.3745L96.517 24.3275H96.6932C96.8083 24.3287 96.9228 24.3445 97.034 24.3745C97.6306 24.545 98.1809 24.8483 98.6437 25.2616C98.647 25.283 98.647 25.3048 98.6437 25.3262C98.5385 25.5086 98.3836 25.6574 98.1972 25.7551C97.9678 25.8642 97.7168 25.9204 97.4628 25.9196H97.034L97.0105 25.9725ZM96.0411 25.7903L96.1704 26.1487L96.0411 25.7903ZM95.5006 24.5331H95.4419H95.5006ZM95.5006 24.5801H95.4536H95.5006ZM95.3831 25.197L95.295 25.2616L95.3831 25.197ZM98.9785 22.2008L98.7788 22.2655L98.9785 22.2008ZM95.6593 21.49H95.7121L95.7533 21.4195C95.8615 21.2234 96.0196 21.0592 96.2115 20.9436H96.2644L96.3525 20.9084L96.517 20.8555H96.5699H96.6638H97.1691H97.2278C97.3385 20.8809 97.4467 20.9163 97.5509 20.9613L97.7977 21.1199L97.9446 20.9084L97.7742 21.1493C97.8471 21.2005 97.9124 21.2618 97.9681 21.3314L98.1972 21.1434L97.9681 21.3314L98.1032 21.49L98.156 21.5605C98.2875 21.7727 98.3939 21.9994 98.4733 22.2361C98.1693 22.0333 97.8443 21.8639 97.5039 21.7309C96.7961 21.4308 95.9988 21.4203 95.2833 21.7015C95.4319 21.7737 95.594 21.8137 95.7591 21.819L95.6593 21.49Z" fill="#979797"/>
<path d="M93.4856 25.3204V25.3262L93.7852 25.3027L93.4856 25.3204Z" fill="#979797"/>
<path d="M143.521 10.8449V10.6921" stroke="#979797" stroke-width="0.3"/>
<path d="M44.4898 27.964C44.2683 27.9574 44.0503 27.9067 43.8485 27.8149C43.6468 27.7232 43.4654 27.5921 43.3148 27.4294C43.0532 27.1634 42.9003 26.8094 42.886 26.4366C42.905 26.2324 42.9607 26.0334 43.0505 25.8491V9.86377C42.837 9.93783 42.6126 9.97556 42.3866 9.97539C42.2035 9.98174 42.021 9.95095 41.8501 9.88486C41.6792 9.81877 41.5234 9.71875 41.3922 9.59085C41.261 9.46294 41.1571 9.30979 41.0867 9.14062C41.0163 8.97146 40.9808 8.78979 40.9825 8.60656C41.002 8.30306 41.0924 8.00836 41.2465 7.74614C41.4006 7.48393 41.614 7.2615 41.8696 7.09674C42.527 6.59608 43.2481 6.18515 44.0139 5.87478C44.8535 5.51601 45.7248 5.23671 46.6165 5.04056C47.3622 4.86488 48.1241 4.76645 48.89 4.74682C49.9182 4.73073 50.9397 4.91428 51.8979 5.2873C52.7408 5.62232 53.5169 6.10584 54.1891 6.71488C54.7912 7.25376 55.2804 7.90671 55.6284 8.63594C55.9481 9.27268 56.1189 9.97379 56.1278 10.6862C56.1224 11.637 55.8758 12.5709 55.411 13.4004C54.9106 14.2927 54.2233 15.0662 53.396 15.6681C54.5084 16.1806 55.4548 16.9947 56.1278 18.018C56.702 18.9035 57.0099 19.9352 57.0149 20.9906C57.015 21.6792 56.8896 22.3621 56.6447 23.0057C56.3947 23.66 56.0524 24.2752 55.6284 24.8327C55.1939 25.4032 54.6772 25.9061 54.0951 26.3249C53.5023 26.7589 52.8411 27.0905 52.1388 27.306C51.2331 27.6042 50.2972 27.8012 49.3482 27.8935C48.4024 27.9758 47.4624 28.0228 46.5225 28.0228H45.5061C45.1771 28.0051 44.8364 27.9934 44.4898 27.964ZM47.2451 14.3521C47.6269 14.3521 48.0147 14.3874 48.42 14.4109C48.8716 14.3656 49.3168 14.2711 49.7477 14.1289C50.2893 13.9701 50.81 13.7472 51.2987 13.465C51.781 13.1904 52.2122 12.8347 52.5735 12.4134C52.9292 12.0053 53.1216 11.4802 53.114 10.9389C53.1254 10.4396 52.9817 9.94901 52.7028 9.53478C52.4304 9.13909 52.0782 8.80487 51.6688 8.55369C51.2304 8.28111 50.75 8.08263 50.2471 7.96621C48.864 7.64557 47.4163 7.74999 46.0936 8.26582V14.3345C46.4774 14.3345 46.8612 14.3404 47.2451 14.3521ZM52.5794 18.6936C52.0125 18.3001 51.3827 18.0061 50.7171 17.8241C50.033 17.6408 49.3357 17.5112 48.6315 17.4364C48.2085 17.4893 47.7855 17.5304 47.3567 17.5656C46.9278 17.6009 46.499 17.6244 46.0819 17.6244V25.009C46.5988 25.009 47.2979 25.009 48.185 24.9385C49.0647 24.887 49.9368 24.7453 50.7876 24.5155C51.5993 24.301 52.3563 23.9166 53.0082 23.3875C53.3225 23.1215 53.571 22.7862 53.734 22.4081C53.8971 22.03 53.9704 21.6192 53.9482 21.208C53.9488 20.7208 53.8362 20.2401 53.6192 19.8039C53.3834 19.3437 53.0231 18.959 52.5794 18.6936Z" fill="#FF8B7C"/>
<path d="M75.3031 25.2616C75.5654 25.5858 75.7085 25.9902 75.7084 26.4072C75.7158 26.5955 75.6836 26.7833 75.6138 26.9584C75.5439 27.1335 75.4381 27.292 75.3031 27.4235C75.0345 27.6797 74.6754 27.8191 74.3044 27.8113C74.0246 27.801 73.7514 27.7242 73.5072 27.5873C73.263 27.4504 73.055 27.2573 72.9003 27.024C72.4933 26.4987 72.1575 25.9219 71.9016 25.3086C71.2478 26.0096 70.4887 26.6042 69.6515 27.071C68.9639 27.4713 68.1954 27.7123 67.4024 27.7763C66.6094 27.8404 65.8121 27.7259 65.0692 27.4411C64.4519 27.2075 63.872 26.8849 63.3479 26.4836C62.8196 26.0732 62.3475 25.5952 61.9438 25.0619C61.5542 24.5453 61.2488 23.9703 61.0391 23.3582C60.8351 22.6662 60.6993 21.9558 60.6337 21.2374C60.5632 20.4619 60.5221 19.657 60.5221 18.817C60.5221 17.8065 60.5221 16.8195 60.5985 15.8796C60.6748 14.9396 60.669 14.0701 60.669 13.3299C60.7516 12.9102 60.9559 12.524 61.2564 12.2196C61.5056 11.9841 61.8359 11.8537 62.1788 11.8553C62.5094 11.8564 62.8294 11.9728 63.0835 12.1843C63.3871 12.4555 63.5934 12.8187 63.671 13.2183C63.671 14.3932 63.671 15.4918 63.6181 16.561C63.5652 17.6302 63.5594 18.77 63.5594 19.9802C63.5106 21.1751 63.8195 22.3574 64.4465 23.3758C64.7021 23.7868 65.0615 24.1231 65.4885 24.351C65.9154 24.579 66.3949 24.6904 66.8786 24.6741C67.2596 24.671 67.6364 24.5952 67.989 24.4509C68.359 24.3036 68.707 24.1059 69.0229 23.8634C69.3467 23.6124 69.644 23.3289 69.91 23.0174C70.1714 22.7092 70.4165 22.3877 70.6444 22.054C70.7017 22.0035 70.7648 21.9602 70.8324 21.9247C70.9008 21.8937 70.9626 21.8498 71.0145 21.7955C70.868 20.5574 70.7955 19.3117 70.7971 18.065C70.7971 17.3541 70.7971 16.6315 70.7971 15.9031C70.8028 15.2353 70.8637 14.5692 70.9792 13.9115C71.0597 13.3853 71.2477 12.8814 71.5315 12.4311C71.6459 12.2458 71.8072 12.0939 71.999 11.9908C72.1909 11.8876 72.4065 11.8369 72.6242 11.8436C72.8103 11.845 72.9943 11.8831 73.1656 11.9556C73.337 12.0282 73.4924 12.1339 73.6229 12.2666C73.7816 12.4309 73.9043 12.6266 73.9832 12.841C74.0621 13.0555 74.0954 13.284 74.0811 13.512C74.0744 14.2031 74.0313 14.8934 73.9519 15.5799C73.8629 16.4269 73.8198 17.278 73.8226 18.1296C73.8226 18.817 73.8226 19.5043 73.899 20.1975C73.9754 20.8908 74.0282 21.5429 74.134 22.1715C74.2331 22.757 74.3825 23.3329 74.5805 23.8928C74.7389 24.388 74.9835 24.8514 75.3031 25.2616Z" fill="#FF8B7C"/>
<path d="M78.4755 25.0854C78.2751 24.7285 78.1986 24.3153 78.2581 23.9104C78.312 23.5835 78.4732 23.2838 78.7163 23.0586C78.967 22.8429 79.2907 22.7314 79.621 22.7472C80.0359 22.7593 80.4365 22.901 80.7666 23.1526C81.311 23.8452 81.9983 24.4122 82.7817 24.8151C83.5581 25.2094 84.4045 25.447 85.2726 25.5142L86.0481 25.291L86.4534 24.9972C86.5138 24.9591 86.5708 24.9158 86.6238 24.868L86.7707 24.7035L87.082 24.2982C87.132 24.2035 87.1695 24.1028 87.1937 23.9985C87.2247 23.8869 87.262 23.7771 87.3053 23.6695C87.2988 23.558 87.2988 23.4462 87.3053 23.3347C87.3118 23.2251 87.3118 23.1153 87.3053 23.0057L87.1232 22.3242C87.0468 22.2302 86.9704 22.1304 86.8823 22.0305C86.7942 21.9306 86.7119 21.8307 86.6414 21.7367C86.0706 21.3657 85.4493 21.0788 84.7967 20.8849C84.1799 20.7145 83.5807 20.5324 83.0049 20.3503C82.4163 20.1615 81.8461 19.9196 81.3012 19.6277C80.6786 19.2695 80.143 18.7779 79.7327 18.1884C79.2659 17.6043 79.0001 16.8853 78.9748 16.1381C78.9377 15.3741 79.0639 14.6111 79.3449 13.8998C79.6292 13.1876 80.0572 12.5416 80.6021 12.0022C81.1172 11.4693 81.7802 11.103 82.5056 10.9506C83.5399 10.702 84.6152 10.6759 85.6603 10.8742C86.7114 11.0647 87.7275 11.4133 88.6741 11.9082C89.0664 12.1562 89.345 12.5488 89.4496 13.0009C89.5287 13.3545 89.4743 13.7249 89.2968 14.0408C89.0971 14.354 88.7901 14.5838 88.4332 14.687C88.2133 14.7436 87.9842 14.7562 87.7594 14.7239C87.5346 14.6917 87.3183 14.6152 87.1232 14.499C86.5408 14.1845 85.909 13.9719 85.255 13.8704C84.6004 13.7764 83.9357 13.7764 83.281 13.8704C83.208 13.9216 83.1265 13.9594 83.0402 13.982C82.9548 14.0071 82.8736 14.0447 82.7993 14.0936C82.5573 14.3494 82.3589 14.6432 82.2118 14.9631C82.0818 15.2975 82.0316 15.6575 82.065 16.0147C82.1101 16.1657 82.1711 16.3114 82.2471 16.4494C82.3123 16.5431 82.3871 16.6297 82.4703 16.7079C82.5471 16.7904 82.6196 16.8766 82.6877 16.9664C83.3006 17.2972 83.9516 17.5517 84.6264 17.7243C85.3313 17.9122 86.0128 18.1237 86.6767 18.3529C87.33 18.5835 87.9517 18.8954 88.5272 19.2811C89.1326 19.693 89.6043 20.2729 89.8843 20.9495C90.4653 22.16 90.5641 23.5463 90.1604 24.8269C89.703 26.0723 88.8375 27.1263 87.7048 27.8172C87.3688 28.0242 87.01 28.1918 86.6355 28.3165C86.2793 28.4458 85.9041 28.5153 85.5252 28.5221C84.1597 28.517 82.8126 28.2059 81.5832 27.6115C80.3488 27.0483 79.279 26.1787 78.4755 25.0854Z" fill="#FF8B7C"/>
<path d="M120.768 17.5363C120.768 17.2464 121.332 16.4945 122.46 15.2803C124.159 13.3041 125.486 11.0372 126.379 8.58894C126.534 8.16824 126.749 7.77242 127.019 7.41399C127.106 7.29595 127.22 7.19924 127.35 7.13108C127.48 7.06292 127.624 7.02508 127.771 7.02037C128.47 7.02037 128.822 7.33761 128.822 7.96622C128.764 8.57756 128.599 9.17395 128.335 9.72865C127.914 10.7031 127.433 11.6507 126.896 12.5662C125.822 14.6074 124.467 16.488 122.871 18.1531C122.691 18.3284 122.494 18.4858 122.284 18.6231C122.141 18.7176 121.973 18.7686 121.802 18.77C121.115 18.7993 120.768 18.3587 120.768 17.5363ZM141.06 27.2884L140.278 25.9431L139.849 25.996L138.857 26.1311L136.119 26.4659C134.615 26.6539 132.9 26.8419 130.967 27.0182L123.4 27.6644C123.227 27.6958 123.049 27.6878 122.879 27.641C122.709 27.5942 122.552 27.5099 122.419 27.3942C122.301 27.2692 122.21 27.1212 122.153 26.9594C122.095 26.7975 122.072 26.6255 122.084 26.4542C122.073 26.285 122.104 26.1157 122.174 25.961C122.243 25.8064 122.35 25.6712 122.484 25.5671C123.205 25.3048 123.975 25.2045 124.739 25.2734L125.65 25.244C127.3 22.0999 128.649 18.8071 129.68 15.4096C129.732 15.1235 129.886 14.8657 130.112 14.6834C130.339 14.501 130.623 14.4064 130.914 14.4167C131.223 14.4469 131.519 14.5584 131.772 14.7399C131.958 14.9392 132.072 15.196 132.095 15.4683C132.087 15.5839 132.059 15.6973 132.012 15.8032C131.958 15.9364 131.922 16.0303 131.907 16.0852C130.901 19.2505 129.551 22.2961 127.882 25.1676L139.233 24.304C138.124 22.7648 137.266 21.6545 136.659 20.973C136.031 20.2915 135.719 19.798 135.719 19.5219C135.719 18.9345 136.06 18.6348 136.742 18.6348C137.259 18.6348 138.161 19.4319 139.45 21.0259C140.664 22.4946 141.72 23.8654 142.616 25.1382C143.333 26.1213 143.692 26.8556 143.692 27.3413C143.692 28.0756 143.28 28.4399 142.458 28.4399C141.959 28.4164 141.506 28.0404 141.06 27.2884ZM142.235 17.7889C141.347 17.0642 140.538 16.2491 139.82 15.3567C138.14 13.4391 136.968 11.1302 136.413 8.64182C136.254 7.7841 135.884 7.34349 135.314 7.32586H132.547C131.725 7.32586 131.313 6.9675 131.313 6.25078C131.313 5.55168 131.725 5.19919 132.547 5.19919H135.931C137.218 5.19919 137.981 5.87479 138.21 7.21424C138.892 11.0211 140.744 13.888 143.768 15.8149C144.643 16.373 145.084 16.89 145.084 17.3718C145.084 18.1825 144.726 18.582 144.009 18.582C143.344 18.5145 142.719 18.2366 142.223 17.7889H142.235Z" fill="#979797"/>
<path d="M142.428 28.5045C141.929 28.5045 141.442 28.1109 140.983 27.3296L140.231 26.0312L138.868 26.2133L136.131 26.5482C134.644 26.7362 132.905 26.9242 130.973 27.1004L123.406 27.7467C123.221 27.7765 123.031 27.7657 122.851 27.715C122.67 27.6643 122.503 27.5748 122.36 27.4529C122.234 27.3196 122.136 27.1616 122.073 26.9887C122.01 26.8158 121.984 26.6318 121.996 26.4483C121.985 26.2648 122.019 26.0813 122.096 25.9143C122.173 25.7472 122.29 25.6017 122.437 25.4907C122.76 25.2792 123.512 25.1794 124.74 25.1794H125.597C127.231 22.0526 128.568 18.7797 129.592 15.4037C129.651 15.099 129.816 14.8252 130.058 14.6314C130.3 14.4376 130.604 14.3365 130.914 14.3463C131.24 14.3734 131.553 14.4892 131.819 14.6811C132.015 14.8968 132.135 15.1715 132.159 15.4625C132.154 15.5884 132.124 15.712 132.071 15.8267C132.018 15.9618 131.983 16.0499 131.965 16.1028C130.986 19.218 129.681 22.2211 128.071 25.0619L139.068 24.2277C138.005 22.7648 137.176 21.6898 136.589 21.0318C136.001 20.3738 135.625 19.8568 135.625 19.522C135.625 19.0813 135.819 18.5467 136.736 18.5467C137.282 18.5467 138.193 19.3398 139.515 20.973C140.725 22.4359 141.788 23.8106 142.681 25.0854C143.415 26.0958 143.774 26.8478 143.774 27.3413C143.75 28.0933 143.292 28.5045 142.428 28.5045ZM141.136 27.2414C141.559 27.964 141.994 28.3283 142.428 28.3283C143.198 28.3283 143.574 27.9993 143.574 27.3178C143.574 26.8537 143.216 26.1428 142.517 25.1618C141.624 23.9163 140.56 22.5416 139.35 21.0846C137.776 19.1342 137.047 18.7347 136.712 18.7347C136.072 18.7347 135.778 18.9873 135.778 19.5337C135.778 19.7158 135.937 20.1212 136.695 20.926C137.282 21.6075 138.169 22.7296 139.28 24.2688L139.368 24.3922L127.712 25.2616L127.806 25.1148C129.472 22.2488 130.82 19.2091 131.824 16.0499C131.824 15.9971 131.877 15.8972 131.93 15.7621C131.975 15.6682 132.001 15.5664 132.007 15.4625C131.984 15.2151 131.881 14.982 131.713 14.7986C131.478 14.6289 131.202 14.5255 130.914 14.499C130.638 14.4834 130.365 14.57 130.148 14.7422C129.932 14.9145 129.786 15.1604 129.739 15.4331C128.708 18.8272 127.363 22.1177 125.721 25.2616V25.3086L124.757 25.338C123.582 25.338 122.836 25.432 122.548 25.62C122.426 25.7157 122.329 25.8406 122.268 25.9833C122.206 26.126 122.181 26.2818 122.196 26.4366C122.185 26.5956 122.206 26.7552 122.258 26.9057C122.311 27.0561 122.394 27.1944 122.501 27.3119C122.626 27.4179 122.774 27.4949 122.932 27.5376C123.09 27.5802 123.256 27.5874 123.418 27.5587L130.984 26.9124C132.911 26.7362 134.644 26.5482 136.131 26.3661L138.868 26.0253L140.349 25.8315L141.136 27.2414ZM121.814 18.8581C121.062 18.8581 120.68 18.4116 120.68 17.5363C120.68 17.3365 120.856 16.8783 122.395 15.1864C124.085 13.2268 125.41 10.9804 126.308 8.55371C126.474 8.13427 126.695 7.73906 126.966 7.37875C127.061 7.25144 127.184 7.14764 127.326 7.07533C127.467 7.00302 127.624 6.96413 127.783 6.96164C128.529 6.96164 128.916 7.31413 128.916 7.98973C128.858 8.60107 128.693 9.19747 128.429 9.75217C128.014 10.7352 127.537 11.6908 127.001 12.6132C125.919 14.6604 124.555 16.5451 122.948 18.2119C122.768 18.3907 122.571 18.552 122.36 18.6936C122.198 18.8001 122.008 18.8572 121.814 18.8581ZM127.771 7.10851C127.637 7.11146 127.506 7.14536 127.388 7.20754C127.27 7.26973 127.168 7.3585 127.089 7.46688C126.827 7.8171 126.615 8.2028 126.461 8.61246C125.562 11.0702 124.228 13.3466 122.525 15.3332C121.144 16.8195 120.856 17.3483 120.856 17.5304C120.856 18.3 121.168 18.676 121.814 18.676C121.97 18.6723 122.123 18.6255 122.254 18.5409C122.464 18.4067 122.661 18.2533 122.842 18.0826C124.432 16.423 125.78 14.5482 126.849 12.5133C127.378 11.5975 127.851 10.6499 128.264 9.6758C128.519 9.13722 128.68 8.55904 128.74 7.96623C128.728 7.39638 128.417 7.11439 127.771 7.11439V7.10851ZM144.009 18.6642C143.326 18.5992 142.681 18.3171 142.17 17.8594C141.282 17.1317 140.472 16.3126 139.755 15.4155C138.066 13.4859 136.888 11.1628 136.33 8.65946C136.172 7.83699 135.843 7.43163 135.314 7.414H132.547C131.672 7.414 131.225 7.02039 131.225 6.23904C131.225 5.72206 131.454 5.09933 132.547 5.09933H135.931C137.265 5.09933 138.058 5.80431 138.281 7.19076C138.541 8.92376 139.168 10.5814 140.119 12.0532C141.07 13.5251 142.324 14.7774 143.797 15.7268C144.708 16.3143 145.154 16.843 145.154 17.36C145.172 18.2119 144.767 18.6701 144.009 18.6701V18.6642ZM132.547 5.28733C131.777 5.28733 131.372 5.60457 131.372 6.25079C131.372 6.89702 131.748 7.23776 132.547 7.23776H135.314C135.902 7.23776 136.33 7.72537 136.489 8.62421C137.041 11.0997 138.207 13.3967 139.879 15.3039C140.587 16.1898 141.387 16.999 142.264 17.7184C142.744 18.1547 143.352 18.4264 143.997 18.4939C144.661 18.4939 144.984 18.1296 144.984 17.3718C144.984 16.9253 144.555 16.4259 143.709 15.8913C142.216 14.9274 140.945 13.6567 139.981 12.1637C139.016 10.6706 138.381 8.98946 138.116 7.23188C137.887 5.92768 137.171 5.28733 135.919 5.28733H132.547Z" fill="#979797"/>
</g>
<defs>
<clipPath id="clip0_90_219">
<rect width="171.174" height="32" fill="white"/>
</clipPath>
</defs>
</svg>
